<svg width="328" height="66" viewBox="0 0 328 66" fill="none" xmlns="http://www.w3.org/2000/svg">
<rect x="3.24303" y="21.1196" width="41.2671" height="41.2671" rx="7.09695" stroke="#F9470F" stroke-width="5.51395"/>
<rect x="21.1196" y="3.24303" width="41.2671" height="41.2671" rx="7.09695" stroke="#F9470F" stroke-width="5.51395"/>
<path d="M83.1177 22.1262V16.4527H109.848V22.1262H99.884V49H93.0821V22.1262H83.1177ZM114.251 49V16.4527H136.182V22.1262H121.132V29.8816H135.054V35.5552H121.132V43.3265H136.245V49H114.251ZM170.37 27.8474H163.409C163.282 26.9469 163.023 26.1469 162.631 25.4477C162.239 24.7378 161.735 24.1339 161.121 23.636C160.506 23.138 159.796 22.7566 158.991 22.4917C158.197 22.2269 157.333 22.0944 156.401 22.0944C154.716 22.0944 153.249 22.5129 151.999 23.3499C150.748 24.1763 149.779 25.3841 149.09 26.9733C148.402 28.552 148.057 30.4696 148.057 32.7263C148.057 35.0466 148.402 36.9961 149.09 38.5747C149.79 40.1533 150.764 41.3452 152.015 42.1504C153.265 42.9556 154.711 43.3583 156.353 43.3583C157.275 43.3583 158.128 43.2364 158.912 42.9927C159.706 42.749 160.411 42.3941 161.025 41.9279C161.64 41.4512 162.148 40.8738 162.551 40.1957C162.964 39.5176 163.25 38.7442 163.409 37.8754L170.37 37.9072C170.19 39.4011 169.74 40.842 169.019 42.2299C168.309 43.6072 167.351 44.8415 166.143 45.9328C164.946 47.0135 163.515 47.8717 161.852 48.5073C160.199 49.1324 158.329 49.445 156.242 49.445C153.339 49.445 150.743 48.7881 148.455 47.4743C146.177 46.1606 144.376 44.2588 143.051 41.769C141.738 39.2792 141.081 36.265 141.081 32.7263C141.081 29.1771 141.748 26.1575 143.083 23.6678C144.418 21.178 146.23 19.2815 148.518 17.9783C150.807 16.6646 153.381 16.0077 156.242 16.0077C158.128 16.0077 159.876 16.2726 161.486 16.8023C163.107 17.332 164.543 18.1055 165.793 19.1226C167.043 20.1291 168.06 21.3634 168.844 22.8255C169.639 24.2876 170.148 25.9615 170.37 27.8474ZM175.305 49V16.4527H182.186V29.8816H196.155V16.4527H203.021V49H196.155V35.5552H182.186V49H175.305ZM208.694 49V16.4527H221.726C224.12 16.4527 226.117 16.8076 227.717 17.5175C229.317 18.2273 230.52 19.2126 231.325 20.4734C232.13 21.7236 232.533 23.1645 232.533 24.7961C232.533 26.0675 232.278 27.1852 231.77 28.1494C231.261 29.1029 230.562 29.8869 229.672 30.5014C228.793 31.1053 227.786 31.5344 226.652 31.7887V32.1065C227.892 32.1595 229.052 32.5091 230.133 33.1554C231.224 33.8017 232.109 34.7076 232.787 35.873C233.465 37.0278 233.804 38.4052 233.804 40.005C233.804 41.7319 233.375 43.2735 232.517 44.6296C231.669 45.9752 230.414 47.04 228.75 47.824C227.087 48.608 225.037 49 222.6 49H208.694ZM215.576 43.3741H221.186C223.103 43.3741 224.502 43.0086 225.381 42.2776C226.26 41.5359 226.7 40.5506 226.7 39.3216C226.7 38.4211 226.483 37.6264 226.049 36.9378C225.614 36.2491 224.994 35.7088 224.189 35.3168C223.395 34.9248 222.446 34.7288 221.344 34.7288H215.576V43.3741ZM215.576 30.0723H220.677C221.62 30.0723 222.457 29.9081 223.188 29.5797C223.93 29.2406 224.512 28.7639 224.936 28.1494C225.371 27.5349 225.588 26.7985 225.588 25.9403C225.588 24.7643 225.169 23.8161 224.332 23.0956C223.506 22.3752 222.33 22.015 220.804 22.015H215.576V30.0723ZM236.375 16.4527H244.082L251.504 30.4696H251.822L259.244 16.4527H266.951L255.08 37.494V49H248.246V37.494L236.375 16.4527ZM271.524 22.1262V16.4527H298.255V22.1262H288.291V49H281.489V22.1262H271.524ZM302.657 49V16.4527H324.588V22.1262H309.539V29.8816H323.46V35.5552H309.539V43.3265H324.652V49H302.657Z" fill="white"/>
</svg>
