<svg width="236" height="66" viewBox="0 0 236 66" fill="none" xmlns="http://www.w3.org/2000/svg">
<rect x="3.24303" y="21.1196" width="41.2671" height="41.2671" rx="7.09695" stroke="#F9470F" stroke-width="5.51395"/>
<rect x="21.1196" y="3.24303" width="41.2671" height="41.2671" rx="7.09695" stroke="#F9470F" stroke-width="5.51395"/>
<path d="M83.1177 22.1262V16.4527H109.848V22.1262H99.884V49H93.0821V22.1262H83.1177ZM114.251 49V16.4527H136.182V22.1262H121.132V29.8816H135.054V35.5552H121.132V43.3265H136.245V49H114.251ZM170.37 27.8474H163.409C163.282 26.9469 163.023 26.1469 162.631 25.4477C162.239 24.7378 161.735 24.1339 161.121 23.636C160.506 23.138 159.796 22.7566 158.991 22.4917C158.197 22.2269 157.333 22.0944 156.401 22.0944C154.716 22.0944 153.249 22.5129 151.999 23.3499C150.748 24.1763 149.779 25.3841 149.09 26.9733C148.402 28.552 148.057 30.4696 148.057 32.7263C148.057 35.0466 148.402 36.9961 149.09 38.5747C149.79 40.1533 150.764 41.3452 152.015 42.1504C153.265 42.9556 154.711 43.3583 156.353 43.3583C157.275 43.3583 158.128 43.2364 158.912 42.9927C159.706 42.749 160.411 42.3941 161.025 41.9279C161.64 41.4512 162.148 40.8738 162.551 40.1957C162.964 39.5176 163.25 38.7442 163.409 37.8754L170.37 37.9072C170.19 39.4011 169.74 40.842 169.019 42.2299C168.309 43.6072 167.351 44.8415 166.143 45.9328C164.946 47.0135 163.515 47.8717 161.852 48.5073C160.199 49.1324 158.329 49.445 156.242 49.445C153.339 49.445 150.743 48.7881 148.455 47.4743C146.177 46.1606 144.376 44.2588 143.051 41.769C141.738 39.2792 141.081 36.265 141.081 32.7263C141.081 29.1771 141.748 26.1575 143.083 23.6678C144.418 21.178 146.23 19.2815 148.518 17.9783C150.807 16.6646 153.381 16.0077 156.242 16.0077C158.128 16.0077 159.876 16.2726 161.486 16.8023C163.107 17.332 164.543 18.1055 165.793 19.1226C167.043 20.1291 168.06 21.3634 168.844 22.8255C169.639 24.2876 170.148 25.9615 170.37 27.8474ZM175.305 49V16.4527H182.186V29.8816H196.155V16.4527H203.021V49H196.155V35.5552H182.186V49H175.305ZM220.391 49.445C218.145 49.445 216.142 49.0318 214.384 48.2054C212.636 47.379 211.248 46.24 210.22 44.7886C209.192 43.3371 208.657 41.6737 208.615 39.7984H215.29C215.364 41.0592 215.893 42.0816 216.879 42.8656C217.864 43.6496 219.035 44.0416 220.391 44.0416C221.472 44.0416 222.425 43.8032 223.252 43.3265C224.089 42.8391 224.74 42.1663 225.206 41.3082C225.683 40.4394 225.921 39.4435 225.921 38.3204C225.921 37.1762 225.678 36.1697 225.19 35.3009C224.714 34.4321 224.051 33.754 223.204 33.2667C222.356 32.7793 221.387 32.5303 220.296 32.5197C219.342 32.5197 218.415 32.7157 217.514 33.1078C216.624 33.4998 215.931 34.0348 215.433 34.7129L209.314 33.6163L210.856 16.4527H230.753V22.0785H216.529L215.687 30.2313H215.878C216.45 29.426 217.313 28.7586 218.468 28.2288C219.623 27.6991 220.915 27.4342 222.346 27.4342C224.306 27.4342 226.054 27.8951 227.59 28.8168C229.126 29.7386 230.339 31.0047 231.229 32.6151C232.119 34.2149 232.559 36.0584 232.549 38.1456C232.559 40.3387 232.051 42.2882 231.023 43.9939C230.006 45.6891 228.581 47.0241 226.748 47.9988C224.926 48.9629 222.807 49.445 220.391 49.445Z" fill="white"/>
</svg>
