<svg width="26" height="26" viewBox="0 0 26 26" fill="none" xmlns="http://www.w3.org/2000/svg">
<path d="M13 0.5C6.09687 0.5 0.5 6.09687 0.5 13C0.5 19.9031 6.09687 25.5 13 25.5C19.9031 25.5 25.5 19.9031 25.5 13C25.5 6.09687 19.9031 0.5 13 0.5ZM19.25 14.0417H14.0417V19.25C14.0417 19.826 13.575 20.2917 13 20.2917C12.425 20.2917 11.9583 19.826 11.9583 19.25V14.0417H6.75C6.175 14.0417 5.70833 13.576 5.70833 13C5.70833 12.424 6.175 11.9583 6.75 11.9583H11.9583V6.75C11.9583 6.17396 12.425 5.70833 13 5.70833C13.575 5.70833 14.0417 6.17396 14.0417 6.75V11.9583H19.25C19.825 11.9583 20.2917 12.424 20.2917 13C20.2917 13.576 19.825 14.0417 19.25 14.0417Z" fill="#EFEFEF"/>
</svg>
