<svg width="62" height="71" viewBox="0 0 62 71" fill="none" xmlns="http://www.w3.org/2000/svg">
<path d="M30.9531 0.458984C30.1585 0.471405 29.4013 0.798585 28.8476 1.36872C28.294 1.93885 27.9891 2.70535 28 3.5V5H11.5C11.1026 4.99461 10.7081 5.06822 10.3394 5.21656C9.97069 5.36491 9.63513 5.58503 9.35221 5.86414C9.06928 6.14325 8.84463 6.47579 8.69129 6.84244C8.53795 7.2091 8.45899 7.60257 8.45899 8H4C3.60247 7.99438 3.20778 8.06782 2.83887 8.21606C2.46997 8.3643 2.13421 8.58439 1.8511 8.86352C1.56799 9.14265 1.34318 9.47527 1.18974 9.84204C1.03629 10.2088 0.957275 10.6024 0.957275 11C0.957275 11.3976 1.03629 11.7912 1.18974 12.158C1.34318 12.5247 1.56799 12.8573 1.8511 13.1365C2.13421 13.4156 2.46997 13.6357 2.83887 13.7839C3.20778 13.9322 3.60247 14.0056 4 14H58C58.3975 14.0056 58.7922 13.9322 59.1611 13.7839C59.53 13.6357 59.8658 13.4156 60.1489 13.1365C60.432 12.8573 60.6568 12.5247 60.8103 12.158C60.9637 11.7912 61.0427 11.3976 61.0427 11C61.0427 10.6024 60.9637 10.2088 60.8103 9.84204C60.6568 9.47527 60.432 9.14265 60.1489 8.86352C59.8658 8.58439 59.53 8.3643 59.1611 8.21606C58.7922 8.06782 58.3975 7.99438 58 8H53.541C53.541 7.60257 53.4621 7.2091 53.3087 6.84244C53.1554 6.47579 52.9307 6.14325 52.6478 5.86414C52.3649 5.58503 52.0293 5.36491 51.6606 5.21656C51.2919 5.06822 50.8974 4.99461 50.5 5H34V3.5C34.0055 3.09863 33.9304 2.70024 33.7792 2.32842C33.6279 1.9566 33.4036 1.61891 33.1195 1.33534C32.8354 1.05178 32.4972 0.828111 32.1251 0.677579C31.753 0.527047 31.3545 0.452715 30.9531 0.458984ZM4 20L9.37891 65.7031C9.73291 68.7241 12.29 71 15.332 71H46.668C49.71 71 52.2641 68.7241 52.6211 65.7031L58 20H4Z" fill="#AE0000"/>
</svg>
